<?xml version="1.0" standalone="no"?>
<!DOCTYPE svg PUBLIC "-//W3C//DTD SVG 20010904//EN"
 "http://www.w3.org/TR/2001/REC-SVG-20010904/DTD/svg10.dtd">
<svg version="1.0" xmlns="http://www.w3.org/2000/svg"
 width="50" height="39" viewBox="0 0 50 39"
 preserveAspectRatio="xMidYMid meet">

<g transform="translate(0.000000,965.000000) scale(0.100000,-0.100000)"
fill="#000000" stroke="none">
<path d="M3325 8740 c-18 -19 -18 -24 -2 -108 28 -141 31 -136 -64 -96 -118
50 -159 44 -159 -21 0 -27 10 -40 61 -81 34 -27 70 -62 80 -78 l18 -30 -263
-130 c-385 -192 -611 -353 -803 -572 -113 -130 -145 -174 -183 -257 -59 -127
-56 -90 -144 -1422 -36 -533 -70 -1017 -76 -1075 -5 -58 -17 -184 -25 -280 -9
-96 -25 -239 -36 -318 -26 -186 -114 -619 -129 -637 -6 -7 -14 -38 -17 -67 -4
-44 -2 -57 17 -80 37 -48 102 -34 124 26 10 28 398 627 403 622 6 -5 -86 -398
-142 -607 -25 -92 -83 -279 -130 -416 -47 -138 -85 -261 -85 -273 0 -28 46
-80 71 -80 10 0 24 3 33 6 33 13 398 427 486 552 24 34 45 60 47 58 8 -7 -77
-401 -100 -471 -13 -38 -41 -103 -61 -142 -41 -82 -45 -122 -16 -148 15 -13
30 -16 62 -12 40 5 54 17 205 174 l163 168 0 -446 c0 -419 1 -447 18 -462 17
-16 168 -17 1969 -17 1743 0 1952 2 1963 15 10 12 13 111 11 455 l-2 440 58 0
c33 0 63 4 69 9 5 6 59 -29 144 -94 104 -81 142 -105 166 -105 39 0 64 27 64
68 0 24 -9 39 -44 68 -57 47 -86 112 -178 389 -51 156 -74 242 -88 335 -10 69
-17 126 -17 127 1 1 187 -156 412 -348 346 -294 415 -349 441 -349 36 0 64 26
64 61 0 31 -14 61 -152 317 -214 401 -397 790 -386 822 2 5 170 -97 373 -225
386 -245 412 -257 448 -217 10 10 17 33 17 50 0 26 -8 37 -40 60 -21 15 -39
31 -40 35 0 4 -37 61 -83 125 -284 398 -355 632 -701 2297 -63 303 -119 577
-126 610 -13 70 -109 333 -153 420 -41 83 -78 135 -166 234 -74 83 -441 417
-471 429 -8 3 -76 40 -151 83 -340 194 -503 266 -814 356 -391 113 -553 135
-858 115 -275 -19 -544 -56 -694 -97 -72 -19 -135 -35 -140 -35 -5 0 -14 19
-20 43 -13 48 -74 146 -128 206 -42 46 -72 52 -100 21z m126 -180 c23 -36 41
-97 48 -160 5 -42 10 -54 21 -51 8 2 44 14 80 26 145 49 321 85 530 110 436
50 603 45 895 -30 443 -113 602 -178 1007 -407 167 -95 189 -111 360 -263 183
-163 263 -245 330 -340 49 -69 72 -117 135 -280 49 -128 63 -187 169 -695 371
-1790 451 -2057 727 -2444 26 -37 42 -65 35 -61 -7 4 -174 109 -370 232 l-358
225 -17 55 c-17 55 -36 74 -54 56 -10 -10 5 -103 22 -135 5 -10 23 -62 40
-115 85 -265 158 -421 457 -983 l56 -104 -130 111 c-547 467 -711 606 -722
610 -32 13 -33 -16 -7 -222 30 -238 80 -423 194 -719 9 -23 9 -27 -1 -19 -51
39 -204 157 -206 159 -2 1 -60 215 -129 476 -68 260 -133 487 -143 503 -10 17
-129 135 -264 264 -135 129 -246 239 -246 243 0 5 31 41 68 81 284 301 458
676 507 1087 8 69 15 158 15 198 0 65 -2 74 -20 79 -11 3 -20 10 -20 15 0 5
-4 7 -9 4 -5 -4 -117 33 -248 80 -131 47 -319 114 -418 148 -317 111 -727 257
-830 296 -55 21 -172 63 -260 94 -88 30 -304 106 -480 169 -176 62 -353 124
-393 136 -70 21 -74 21 -95 4 -87 -69 -1004 -839 -1013 -849 -6 -8 -16 -14
-23 -14 -6 0 -11 -7 -11 -15 0 -8 -7 -15 -15 -15 -8 0 -15 -7 -15 -15 0 -8 -5
-15 -12 -15 -8 0 -9 -38 -5 -142 22 -502 208 -928 562 -1286 l111 -113 -186
-177 c-102 -97 -214 -203 -249 -235 l-64 -59 -64 -216 c-35 -119 -74 -253 -88
-297 -19 -61 -129 -436 -161 -547 -4 -13 3 -17 30 -20 l34 -3 -104 -110 c-100
-106 -103 -108 -84 -63 11 26 34 98 50 160 37 141 163 835 156 855 -12 31 -40
8 -52 -42 -11 -51 -123 -238 -242 -404 -104 -146 -402 -482 -387 -436 149 435
196 604 335 1215 44 195 88 370 98 387 29 57 -20 74 -52 18 -10 -17 -389 -608
-493 -768 -25 -38 -51 -83 -59 -100 -12 -26 -14 -27 -10 -7 3 14 23 115 45
226 58 291 102 635 128 1009 2 33 33 492 69 1020 87 1309 84 1272 139 1392 78
172 321 415 590 592 55 36 221 127 370 201 254 127 270 137 273 164 6 52 -8
96 -45 137 l-36 40 29 -12 c46 -20 91 -57 111 -89 18 -32 40 -39 49 -17 2 7
-4 72 -16 145 -11 72 -20 134 -20 138 0 8 28 -28 51 -66z m919 -1814 c212 -75
432 -153 489 -173 l104 -37 -64 -21 c-62 -21 -84 -44 -62 -66 4 -4 62 3 128
16 133 27 126 28 290 -34 l80 -30 -57 6 c-134 13 -273 -42 -383 -152 -117
-117 -184 -261 -207 -441 l-12 -93 -68 36 c-111 57 -142 55 -259 -16 l-36 -21
-7 67 c-11 108 -34 191 -83 293 -109 227 -329 359 -540 323 -100 -18 -187 -65
-269 -147 -113 -113 -181 -258 -205 -435 -7 -47 -13 -87 -14 -89 -2 -2 -116
71 -255 162 l-251 166 223 187 c123 102 226 190 229 195 3 5 19 19 36 31 91
66 200 152 218 172 11 13 98 88 193 168 l174 145 111 -38 c62 -21 285 -99 497
-174z m-437 -409 c197 -94 326 -309 344 -573 20 -301 -119 -574 -347 -683 -71
-34 -81 -36 -175 -36 -95 0 -104 2 -179 37 -112 54 -198 142 -260 268 -113
229 -113 491 0 719 34 69 63 110 112 161 107 108 215 153 355 146 63 -3 91
-11 150 -39z m1412 28 c183 -48 332 -213 397 -441 29 -103 32 -313 5 -414 -63
-239 -230 -420 -425 -461 -361 -75 -677 348 -598 800 63 361 338 589 621 516z
m361 -97 c126 -44 279 -99 339 -120 260 -91 375 -133 375 -138 0 -7 -610 -273
-614 -269 -2 2 -9 42 -15 88 -30 208 -138 397 -278 490 -26 17 -44 31 -41 31
3 0 108 -37 234 -82z m-2565 -542 c56 -37 57 -37 63 -99 11 -104 36 -188 83
-286 36 -76 59 -107 121 -170 110 -110 221 -161 347 -161 125 0 236 51 346
160 110 108 173 246 204 443 5 29 10 37 27 37 11 0 43 14 70 30 74 46 93 47
170 6 37 -20 76 -36 87 -36 22 0 25 -9 36 -93 26 -199 174 -415 339 -496 190
-93 393 -55 552 103 115 116 182 258 207 443 l12 96 315 138 c173 77 319 139
324 139 10 0 1 -154 -15 -265 -89 -599 -489 -1139 -1043 -1406 -639 -308
-1398 -233 -1960 194 -355 270 -604 656 -700 1088 -26 120 -46 281 -46 380 l0
59 203 -133 c111 -73 227 -150 258 -171z m2429 -1628 c-156 -249 -288 -459
-295 -466 -9 -10 -20 8 -50 85 -91 234 -151 340 -212 376 l-35 20 118 33 c231
64 443 169 634 315 41 31 84 66 95 77 11 10 22 18 23 16 2 -1 -123 -206 -278
-456z m-2168 363 c6 -16 192 -132 291 -182 139 -70 234 -106 379 -143 l127
-33 -25 -24 c-39 -36 -86 -137 -139 -299 -26 -80 -51 -149 -56 -154 -5 -5 -13
1 -19 15 -5 13 -19 35 -29 49 -24 31 -554 771 -565 789 -7 10 -4 11 12 2 11
-6 22 -15 24 -20z m1482 -400 c-44 -27 -110 -103 -138 -160 -51 -99 -56 -147
-56 -523 l0 -348 -90 0 -90 0 0 358 c0 386 5 430 54 501 39 56 116 126 178
163 50 29 65 33 114 30 l56 -4 -28 -17z m-313 9 l96 0 -70 -70 c-38 -38 -75
-66 -80 -63 -11 7 -168 132 -177 141 -3 3 27 2 65 -2 39 -3 113 -6 166 -6z
m-278 -29 c66 -34 208 -154 201 -171 -4 -8 -12 -29 -18 -46 l-10 -32 -85 79
c-94 89 -138 109 -196 92 -19 -6 -35 -10 -35 -8 0 12 32 60 54 80 32 30 41 31
89 6z m-953 -961 l0 -50 -390 0 c-214 0 -390 3 -390 6 0 3 5 25 11 50 l11 44
379 0 379 0 0 -50z m3309 -4 c6 -25 11 -47 11 -50 0 -3 -169 -6 -375 -6 l-375
0 0 50 0 50 364 0 364 0 11 -44z m-3309 -531 l0 -435 -295 0 -295 0 0 435 0
435 295 0 295 0 0 -435z m3190 -5 l0 -430 -310 0 -310 0 0 430 0 430 310 0
310 0 0 -430z"/>
<path d="M3701 6545 c-35 -8 -87 -22 -115 -31 -97 -32 -236 -109 -236 -131 0
-18 7 -16 45 7 48 30 160 70 251 90 140 30 332 24 488 -15 50 -13 62 -13 73
-2 26 26 3 45 -80 68 -105 29 -329 36 -426 14z"/>
<path d="M3736 6099 c-159 -26 -301 -170 -348 -351 -15 -57 -2 -119 36 -175
l24 -35 0 84 c0 185 90 337 240 406 46 21 72 26 137 26 94 0 150 -21 214 -79
45 -41 51 -37 22 11 -37 60 -168 126 -245 123 -17 -1 -53 -5 -80 -10z"/>
<path d="M3732 5965 c-223 -97 -268 -479 -77 -653 82 -75 176 -92 270 -48 249
116 249 575 0 696 -49 24 -144 26 -193 5z m99 -126 c60 -42 66 -151 10 -201
-44 -39 -77 -45 -120 -22 -101 56 -103 184 -3 235 36 19 75 14 113 -12z m-96
-314 c0 -35 -31 -47 -51 -20 -18 25 0 57 29 53 17 -2 22 -10 22 -33z"/>
<path d="M5103 6096 c-60 -20 -127 -61 -157 -97 -38 -44 -32 -55 12 -20 95 77
228 97 342 53 148 -58 250 -227 250 -415 0 -76 8 -79 42 -14 42 82 22 186 -62
315 -46 72 -120 133 -195 161 -73 27 -177 35 -232 17z"/>
<path d="M5062 5954 c-206 -102 -243 -461 -66 -638 107 -107 268 -99 372 20
67 75 86 138 86 274 0 138 -20 201 -89 278 -84 94 -198 119 -303 66z m106
-107 c57 -27 79 -123 42 -184 -42 -69 -122 -79 -179 -22 -50 49 -53 118 -10
174 39 49 89 60 147 32z m-83 -306 c9 -28 -5 -51 -30 -51 -28 0 -43 34 -25 55
17 21 48 19 55 -4z"/>
<path d="M4418 5313 c-45 -36 -61 -63 -37 -63 6 0 29 16 52 35 22 19 51 35 64
35 13 0 40 -16 62 -35 40 -36 61 -44 60 -22 -1 24 -89 87 -122 87 -22 0 -47
-12 -79 -37z"/>
<path d="M4263 4623 c-8 -19 15 -39 110 -96 92 -54 151 -60 232 -23 88 40 175
96 175 112 0 30 -30 24 -116 -25 -138 -80 -176 -80 -296 -1 -83 54 -95 58
-105 33z"/>
<path d="M4555 3635 c-30 -30 -32 -64 -4 -99 40 -50 119 -17 119 51 0 29 -42
73 -70 73 -11 0 -32 -11 -45 -25z"/>
<path d="M4555 3265 c-30 -30 -32 -64 -4 -99 40 -50 119 -17 119 51 0 29 -42
73 -70 73 -11 0 -32 -11 -45 -25z"/>
</g>
</svg>
